PathFileType	4	(X/Y/Z)	1103211_Jog01.trc	
DataRate	CameraRate	NumFrames	NumMarkers	Units	OrigDataRate	OrigDataStartFrame	OrigNumFrames
300	300	4	69	mm	300	748	258
Frame#	Time	CLAV			STRN			RSHO			LSHO			C7			T10			RBAK			RASI			LASI			RPSI			LPSI			LGTR			RGTR			LHJC			RHJC			LANK			RANK			LHEE			RHEE			LMT5			RMT5			LTOE			RTOE			RELB			RWRA			RWRB			RFIN			LELB			LWRB			LWRA			LFIN			RFP1			RFP2			RFP3			RFM1			RFM2			RFM3			RFA1			RFA2			RFA3			LFP1			LFP2			LFP3			LFM1			LFM2			LFM3			LFA1			LFA2			LFA3			LKNE			RKNE			RTP1			RTP2			RTP3			RTA1			RTA2			RTA3			LTP1			LTP2			LTP3			LTA1			LFHD			LBHD			RFHD			RBHD			LUPA			LFRA			RUPA			RFRA			
		X1	Y1	Z1	X2	Y2	Z2	X3	Y3	Z3	X4	Y4	Z4	X5	Y5	Z5	X6	Y6	Z6	X7	Y7	Z7	X8	Y8	Z8	X9	Y9	Z9	X10	Y10	Z10	X11	Y11	Z11	X12	Y12	Z12	X13	Y13	Z13	X14	Y14	Z14	X15	Y15	Z15	X16	Y16	Z16	X17	Y17	Z17	X18	Y18	Z18	X19	Y19	Z19	X20	Y20	Z20	X21	Y21	Z21	X22	Y22	Z22	X23	Y23	Z23	X24	Y24	Z24	X25	Y25	Z25	X26	Y26	Z26	X27	Y27	Z27	X28	Y28	Z28	X29	Y29	Z29	X30	Y30	Z30	X31	Y31	Z31	X32	Y32	Z32	X33	Y33	Z33	X34	Y34	Z34	X35	Y35	Z35	X36	Y36	Z36	X37	Y37	Z37	X38	Y38	Z38	X39	Y39	Z39	X40	Y40	Z40	X41	Y41	Z41	X42	Y42	Z42	X43	Y43	Z43	X44	Y44	Z44	X45	Y45	Z45	X46	Y46	Z46	X47	Y47	Z47	X48	Y48	Z48	X49	Y49	Z49	X50	Y50	Z50	X51	Y51	Z51	X52	Y52	Z52	X53	Y53	Z53	X54	Y54	Z54	X55	Y55	Z55	X56	Y56	Z56	X57	Y57	Z57	X58	Y58	Z58	X59	Y59	Z59	X60	Y60	Z60	X61	Y61	Z61	X62	Y62	Z62	X63	Y63	Z63	X64	Y64	Z64	X65	Y65	Z65	X66	Y66	Z66	X67	Y67	Z67	X68	Y68	Z68	X69	Y69	Z69	

130	0.43000	1374.00110	1374.12646	-24.50307	1412.57104	1202.07117	-33.24854	1333.95764	1417.13037	145.67331	1274.03406	1424.71228	-170.21706	1241.13232	1438.07312	0.46733	1182.49231	1156.84644	0.88493	1202.16821	1352.53333	104.19724	1338.71021	965.48340	85.49566	1325.23999	948.14886	-131.86882	1157.22937	980.82947	32.82401	1153.41406	982.30243	-63.80846	1262.74646	879.56750	-187.02864	1240.28906	874.02820	148.14583	1246.94775	879.73462	-92.00557	1253.31848	892.78326	66.31602	1472.67773	110.22272	-76.85066	788.73987	258.55148	71.68840	1425.23975	62.94683	-13.38420	746.61664	321.43619	25.21783	1593.12549	98.31609	-116.63722	774.34613	128.73232	90.20534	1622.84302	163.34834	-63.64420	822.64484	103.72466	23.65147	1238.75281	1170.24146	307.34387	1401.20496	1119.21375	141.37328	1418.21057	1061.32410	184.33939	1478.18604	1118.53101	129.23044	1050.58313	1272.17163	-280.63568	1215.40601	1081.57690	-265.41797	1243.69800	1135.59155	-229.40178	1314.80969	1089.96448	-257.18054	1207.61206	783.18494	153.60310	1175.46460	695.65027	141.68987	1140.80957	612.49536	124.71397	1285.69287	817.69788	137.98048	1258.15918	721.82556	132.30963	1228.18347	634.94989	117.32488	1317.52478	764.31256	90.17150	1284.01514	667.91071	80.63789	1238.51550	588.56976	61.61692	1286.66833	776.94897	-187.15776	1332.15833	672.46118	-168.02092	1358.58069	600.62250	-145.81432	1328.06311	847.09296	-182.13264	1369.39270	751.44165	-178.02449	1404.48364	666.50116	-155.73055	1392.90259	818.07990	-121.80788	1423.19580	730.61444	-95.92171	1443.95435	645.70630	-79.36665	1386.40405	509.57932	-122.20177	1088.90747	519.73553	106.48868	999.55499	450.43344	115.91329	919.11139	385.10641	101.70824	858.38971	326.20892	84.75880	1064.79236	426.41953	52.53096	1000.04333	377.11514	45.35161	933.14325	326.27344	40.57161	1412.52234	383.76260	-131.90434	1427.46838	304.33975	-118.36754	1446.27808	221.86790	-98.79427	1457.13367	449.12222	-69.07591	1375.98315	1632.83972	-93.24474	1260.06726	1614.23120	-100.07188	1379.82080	1631.66443	53.43698	1241.43408	1616.61072	63.14024	1199.08508	1376.33118	-243.23424	1153.18188	1157.41992	-288.57135	1267.20972	1250.26184	273.86414	1310.25635	1118.99719	277.46490	
131	0.43333	1382.93372	1372.82581	-24.67296	1421.46130	1200.80847	-33.28952	1342.68188	1415.83289	145.54507	1283.07715	1423.23901	-170.60085	1249.98035	1436.80200	0.16505	1191.22339	1155.47815	0.82286	1210.87048	1351.33411	103.87120	1347.97266	964.66437	85.50165	1334.16406	946.52606	-131.79063	1166.34485	979.17889	33.11040	1162.37354	980.39832	-63.50713	1271.81018	877.53864	-186.72102	1249.94226	872.74451	148.48151	1256.17151	877.99390	-91.53899	1262.78662	891.61578	66.72427	1479.97156	108.93238	-75.64876	795.92560	262.24713	73.04512	1432.16162	61.96473	-12.32291	754.80713	325.74857	26.56937	1600.36060	96.66281	-114.88356	779.64862	132.77477	91.73656	1630.05640	161.48425	-61.73505	827.49152	106.94003	25.16055	1246.89380	1169.30444	307.32880	1409.34009	1115.47937	142.03401	1425.72534	1057.87952	185.59666	1486.33228	1113.75623	129.86163	1059.50989	1270.22302	-280.46613	1225.25500	1080.42480	-265.25031	1253.40149	1134.64209	-229.44225	1324.64734	1089.23889	-257.38397	1217.59644	781.64746	153.75447	1186.07813	693.85693	142.08081	1152.06079	610.37061	125.38179	1295.46497	816.63507	138.15671	1268.49487	720.63538	132.63354	1239.25012	633.46313	118.05525	1327.57886	763.43921	90.42098	1294.95386	666.65192	81.32068	1250.13989	586.87274	62.65243	1295.98230	774.99493	-186.57527	1341.69812	670.73816	-167.15816	1368.17322	599.02075	-144.87245	1337.20630	845.18829	-181.78658	1378.71680	749.67804	-177.44463	1414.01184	664.88745	-154.92802	1402.14294	816.45465	-121.48170	1432.57361	729.21387	-95.36238	1453.36121	644.41656	-78.40544	1395.98779	508.08994	-121.37529	1100.71387	517.52899	107.51618	1010.50116	449.69693	117.14304	928.77319	386.08917	102.90483	866.85455	328.51508	85.99586	1075.25232	424.54477	53.69022	1009.44513	376.53104	46.45238	941.55042	327.06619	41.73718	1421.61609	382.34995	-130.84526	1436.06995	302.93243	-117.24843	1454.32935	220.41986	-97.60417	1466.02588	447.57202	-67.73265	1384.91858	1631.57056	-93.56877	1269.00623	1612.92749	-100.43587	1388.71338	1630.42017	53.12163	1250.32410	1615.33557	62.75285	1208.11511	1374.52747	-243.63530	1162.61572	1155.93176	-288.43933	1275.42334	1249.22583	273.83508	1318.05078	1117.15747	277.99420	
132	0.43667	1391.86340	1371.41089	-24.83081	1430.34204	1199.43066	-33.31236	1351.36853	1414.43091	145.42403	1292.13159	1421.65344	-170.99757	1258.81592	1435.42834	-0.14819	1199.95276	1153.98718	0.74463	1219.53687	1350.03015	103.52261	1357.17944	963.70679	85.52792	1343.08044	944.82825	-131.70677	1175.41321	977.35529	33.39139	1171.30078	978.33026	-63.21930	1280.87451	875.43549	-186.41243	1259.55554	871.30658	148.80371	1265.40479	876.14154	-91.09859	1272.22876	890.28851	67.10976	1486.80212	107.56883	-74.47166	803.32068	265.91937	74.41681	1438.54919	61.00017	-11.30252	763.21674	330.00681	27.92545	1607.09619	94.74741	-113.15993	785.17999	136.83218	93.30890	1636.87634	159.25349	-59.82288	832.56116	110.17458	26.71745	1254.96851	1168.25391	307.29016	1417.40723	1111.53223	142.74611	1433.14148	1054.24036	186.92566	1494.40247	1108.72827	130.57623	1068.49756	1268.09546	-280.34705	1235.17749	1079.12024	-265.09460	1263.15979	1133.53870	-229.47972	1334.55078	1088.37158	-257.56732	1227.57813	779.95099	153.91718	1196.73010	691.89752	142.49521	1163.39478	608.06458	126.07376	1305.22583	815.44806	138.35429	1278.86182	719.31519	132.99420	1250.38733	631.84021	118.82201	1337.64343	762.46124	90.69080	1305.94702	665.28235	82.03753	1261.86011	585.04779	63.72776	1305.33630	772.98883	-185.97505	1351.28735	668.99072	-166.25352	1377.81555	597.40234	-143.91640	1346.35876	843.24792	-181.42464	1388.06335	747.90979	-176.79640	1423.56616	663.29266	-154.07195	1411.40186	814.86517	-121.13283	1442.05042	727.85986	-94.78728	1462.87683	643.14386	-77.44353	1405.59583	506.54297	-120.55818	1112.66162	515.14935	108.58630	1021.61798	448.82889	118.40976	938.62616	386.98117	104.12851	875.52142	330.76572	87.25523	1085.86633	422.52997	54.89456	1019.01392	375.83646	47.59264	950.13843	327.78241	42.94139	1430.60986	380.85095	-129.79134	1444.47815	301.43027	-116.13728	1462.08484	218.85941	-96.42375	1474.88904	445.88541	-66.40086	1393.85864	1630.19873	-93.88847	1277.94995	1611.52124	-100.79948	1397.60425	1629.07166	52.81351	1259.21021	1613.95593	62.36328	1217.17322	1372.57520	-244.05348	1172.12048	1154.27283	-288.33270	1283.57471	1248.06689	273.79022	1325.76099	1115.17896	278.53668	
133	0.44000	1400.79089	1369.88330	-24.97607	1439.21399	1197.93945	-33.31615	1360.01746	1412.92749	145.30981	1301.19812	1419.95752	-171.40657	1267.63867	1433.95288	-0.47255	1208.68225	1152.37537	0.65186	1228.16711	1348.62256	103.15116	1366.33008	962.60779	85.57562	1351.99097	943.06238	-131.61717	1184.43530	975.36230	33.66663	1180.19702	976.10437	-62.94579	1289.94019	873.26416	-186.10335	1269.12842	869.71649	149.11266	1274.64783	874.18408	-90.68822	1281.64368	888.80090	67.46988	1493.18909	106.14304	-73.31676	810.93732	269.56219	75.80349	1444.42603	60.06290	-10.32120	771.85901	334.20697	29.28453	1613.35107	92.58531	-111.47136	790.94836	140.89578	94.92030	1643.32251	156.66953	-57.91153	837.86322	113.41831	28.32243	1262.97754	1167.09155	307.22693	1425.40283	1107.37878	143.51056	1440.45630	1050.41370	188.32515	1502.39124	1103.45703	131.37756	1077.54810	1265.79028	-280.27905	1245.17407	1077.66394	-264.95081	1272.97388	1132.28125	-229.51320	1344.52136	1087.36243	-257.72937	1237.55615	778.09967	154.09583	1207.41675	689.77814	142.93727	1174.80432	605.58588	126.79362	1314.97424	814.13812	138.57365	1289.25684	717.86798	133.39549	1261.58862	630.08618	119.62753	1347.71533	761.37909	90.98286	1316.98694	663.80731	82.78909	1273.66504	583.10339	64.84237	1314.72351	770.93457	-185.36061	1360.91211	667.21783	-165.31358	1387.49219	595.76392	-142.95174	1355.51868	841.27319	-181.04698	1397.42395	746.13416	-176.08327	1433.13330	661.71045	-153.17006	1420.68091	813.30731	-120.76701	1451.62024	726.54114	-94.20311	1472.48474	641.87451	-76.48921	1415.21423	504.93600	-119.75243	1124.74048	512.60907	109.70023	1032.89966	447.83722	119.71310	948.67120	387.78305	105.37897	884.39703	332.95697	88.53699	1096.63159	420.38596	56.14606	1028.75183	375.03748	48.77486	958.91345	328.42377	44.18614	1439.50146	379.26538	-128.74342	1452.69849	299.83493	-115.03368	1469.55713	217.19087	-95.25203	1483.72046	444.06387	-65.08495	1402.80322	1628.72632	-94.20360	1286.89819	1610.01416	-101.16277	1406.49353	1627.62085	52.51309	1268.09253	1612.47327	61.97223	1226.26074	1370.47693	-244.48653	1181.69788	1152.44409	-288.25134	1291.66553	1246.78662	273.72760	1333.38672	1113.06665	279.09070	
